<?xml version="1.0" encoding="utf-8"?>
<svg xml:space="preserve" style="height: 100%; width: 100%; background: none; shape-rendering: auto;" viewBox="0 0 128 128" y="0px" x="0px" xmlns:xlink="http://www.w3.org/1999/xlink" xmlns="http://www.w3.org/2000/svg" id="Layer_1" version="1.1" width="216px" height="216px"><g class="ldl-scale" style="transform-origin: 50% 50%; transform: rotate(0deg) scale(0.8, 0.8);"><g class="ldl-ani"><style type="text/css">.st0{fill:none}.st1{fill:#f7b26a}.st2{fill:#f47e5f}</style><g class="ldl-layer"><g class="ldl-ani" style="transform: scale(0.91); transform-origin: 64px 64px; animation: 1.11111s linear -0.611111s infinite normal forwards running breath-77ef6873-6388-49ab-96d6-712350c63032;"><path d="z" class="st0"></path></g></g><g class="ldl-layer"><g class="ldl-ani"><g><g class="ldl-layer"><g class="ldl-ani" style="transform: scale(0.91); transform-origin: 64px 64px; animation: 1.11111s linear -0.666667s infinite normal forwards running breath-77ef6873-6388-49ab-96d6-712350c63032;"><path d="M61.3,51.6c0,2.2-2.7,3.3-4.2,1.8L37.5,33.7c-3.3-3.3-4.9-8.2-3.8-12.8c0.9-4.6,4-8.3,8.3-10.1l0.3-0.1 c1.7-0.6,3.3-1,5.1-1c2.7,0,5.4,0.8,7.7,2.4c4,2.7,6.3,7,6.3,11.8V51.6z" class="st1" style="fill: rgb(247, 178, 106);"></path></g></g></g></g></g><g class="ldl-layer"><g class="ldl-ani"><g><g class="ldl-layer"><g class="ldl-ani" style="transform: scale(0.91); transform-origin: 64px 64px; animation: 1.11111s linear -0.722222s infinite normal forwards running breath-77ef6873-6388-49ab-96d6-712350c63032;"><path d="M23.8,66.7c-4.7,0-9.1,2.3-11.8,6.3c-2.6,3.8-3.1,8.4-1.4,12.8l0.1,0.4c1.8,4.4,5.5,7.4,10.1,8.3 c4.7,0.9,9.5-0.5,12.8-3.8l19.7-19.7c1.5-1.5,0.5-4.2-1.8-4.2C51.6,66.7,23.8,66.7,23.8,66.7z" class="st1" style="fill: rgb(247, 178, 106);"></path></g></g></g></g></g><g class="ldl-layer"><g class="ldl-ani"><g><g class="ldl-layer"><g class="ldl-ani" style="transform: scale(0.91); transform-origin: 64px 64px; animation: 1.11111s linear -0.777778s infinite normal forwards running breath-77ef6873-6388-49ab-96d6-712350c63032;"><path d="M66.7,104.2c0,4.7,2.3,9.1,6.3,11.8c3.8,2.6,8.4,3.1,12.8,1.4l0.4-0.1c4.4-1.8,7.3-5.5,8.3-10.1 c0.9-4.6-0.5-9.5-3.8-12.8L70.9,74.6c-1.5-1.5-4.2-0.5-4.2,1.8C66.7,76.4,66.7,104.2,66.7,104.2z" class="st1" style="fill: rgb(247, 178, 106);"></path></g></g></g></g></g><g class="ldl-layer"><g class="ldl-ani"><g><g class="ldl-layer"><g class="ldl-ani" style="transform: scale(0.91); transform-origin: 64px 64px; animation: 1.11111s linear -0.833333s infinite normal forwards running breath-77ef6873-6388-49ab-96d6-712350c63032;"><path d="M104.2,61.3c4.7,0,9.1-2.3,11.8-6.3c2.6-3.8,3.1-8.4,1.4-12.8l-0.1-0.4c-1.8-4.4-5.5-7.4-10.1-8.3 c-4.7-0.9-9.5,0.5-12.8,3.8L74.6,57.1c-1.5,1.5-0.5,4.2,1.8,4.2C76.4,61.3,104.2,61.3,104.2,61.3z" class="st1" style="fill: rgb(247, 178, 106);"></path></g></g></g></g></g><g class="ldl-layer"><g class="ldl-ani"><g><g class="ldl-layer"><g class="ldl-ani"><g><g class="ldl-layer"><g class="ldl-ani" style="transform: scale(0.91); transform-origin: 64px 64px; animation: 1.11111s linear -0.888889s infinite normal forwards running breath-77ef6873-6388-49ab-96d6-712350c63032;"><path d="M23.7,33.3c-0.9,0-1.8,0.1-2.7,0.3c-4.6,0.9-8.2,3.8-10,8.1L10.9,42c-1.8,4.4-1.3,9.1,1.3,13.1 c2.7,4,7,6.3,11.8,6.3h27.8c2.2,0,3.3-2.7,1.8-4.2L33.7,37.5C31,34.8,27.4,33.3,23.7,33.3z" class="st2" style="fill: rgb(244, 126, 95);"></path></g></g></g></g></g><g class="ldl-layer"><g class="ldl-ani"><g><g class="ldl-layer"><g class="ldl-ani" style="transform: scale(0.91); transform-origin: 64px 64px; animation: 1.11111s linear -0.944444s infinite normal forwards running breath-77ef6873-6388-49ab-96d6-712350c63032;"><path d="M37.5,94.3c-3.3,3.3-4.7,8.1-3.8,12.8c0.9,4.6,3.8,8.2,8.1,10l0.4,0.1c4.4,1.8,9.1,1.4,13.1-1.3 s6.3-7,6.3-11.8V76.4c0-2.2-2.7-3.3-4.2-1.8L37.5,94.3z" class="st2" style="fill: rgb(244, 126, 95);"></path></g></g></g></g></g><g class="ldl-layer"><g class="ldl-ani"><g><g class="ldl-layer"><g class="ldl-ani" style="transform: scale(0.91); transform-origin: 64px 64px; animation: 1.11111s linear -1s infinite normal forwards running breath-77ef6873-6388-49ab-96d6-712350c63032;"><path d="M94.3,90.5c3.3,3.3,8.1,4.7,12.8,3.8c4.6-0.9,8.2-3.8,10-8.1l0.1-0.4c1.8-4.4,1.3-9.1-1.3-13.1 c-2.7-4-7-6.3-11.8-6.3H76.4c-2.2,0-3.3,2.7-1.8,4.2C74.6,70.8,94.3,90.5,94.3,90.5z" class="st2" style="fill: rgb(244, 126, 95);"></path></g></g></g></g></g><g class="ldl-layer"><g class="ldl-ani"><g><g class="ldl-layer"><g class="ldl-ani" style="transform: scale(0.91); transform-origin: 64px 64px; animation: 1.11111s linear -1.05556s infinite normal forwards running breath-77ef6873-6388-49ab-96d6-712350c63032;"><path d="M94.5,20.9c-0.9-4.6-3.8-8.2-8.1-10L86,10.8c-1.8-0.8-3.6-1-5.4-1c-2.7,0-5.4,0.8-7.7,2.4 c-4,2.7-6.3,7-6.3,11.8v27.8c0,2.2,2.7,3.3,4.2,1.8l19.7-19.7C94,30.3,95.4,25.6,94.5,20.9z" class="st2" style="fill: rgb(244, 126, 95);"></path></g></g></g></g></g></g></g></g><g class="ldl-layer"><g class="ldl-ani" style="transform: scale(0.91); transform-origin: 64px 64px; animation: 1.11111s linear -1.11111s infinite normal forwards running breath-77ef6873-6388-49ab-96d6-712350c63032;"><path d="z" class="st0"></path></g></g><metadata xmlns:d="https://loading.io/stock/">
<d:name>orange</d:name>
<d:tags>fruit,flower,leaf,tangerine,mandarin,orange,spinner</d:tags>
<d:license>by</d:license>
<d:slug>w86lyk</d:slug>
</metadata></g></g><style id="breath-77ef6873-6388-49ab-96d6-712350c63032" data-anikit="">@keyframes breath-77ef6873-6388-49ab-96d6-712350c63032
{
  0% {
    animation-timing-function: cubic-bezier(0.9647,0.2413,-0.0705,0.7911);
    transform: scale(0.9099999999999999);
  }
  51% {
    animation-timing-function: cubic-bezier(0.9226,0.2631,-0.0308,0.7628);
    transform: scale(1.02994);
  }
  100% {
    transform: scale(0.9099999999999999);
  }
}</style><!-- [ldio] generated by https://loading.io/ --></svg>