<?xml version="1.0" standalone="no"?>
<!DOCTYPE svg PUBLIC "-//W3C//DTD SVG 20010904//EN"
 "http://www.w3.org/TR/2001/REC-SVG-20010904/DTD/svg10.dtd">
<svg version="1.0" xmlns="http://www.w3.org/2000/svg"
 width="2256.000000pt" height="1261.000000pt" viewBox="0 0 2256.000000 1261.000000"
 preserveAspectRatio="xMidYMid meet">

<g transform="translate(0.000000,1261.000000) scale(0.100000,-0.100000)"
fill="#000000" stroke="none">
<path d="M16098 10910 c-153 -162 -433 -1060 -694 -2228 l-54 -243 -82 -102
c-337 -416 -626 -667 -771 -667 -80 0 -125 53 -148 176 -16 86 -5 464 20 654
31 233 27 280 -24 280 -33 0 -40 -12 -151 -261 -191 -429 -299 -604 -334 -540
-24 47 -32 180 -27 455 4 179 3 285 -4 297 -11 22 -42 25 -57 7 -5 -7 -44 -92
-85 -188 -125 -294 -330 -730 -341 -730 -8 0 36 144 140 461 57 174 104 327
104 341 0 34 -35 66 -58 52 -9 -6 -35 -63 -57 -128 l-40 -118 -190 -192 c-372
-375 -628 -551 -822 -564 -64 -4 -79 -1 -127 22 -96 47 -182 158 -201 258 -7
36 -6 37 47 64 292 147 475 411 430 616 -25 108 -85 162 -182 162 -116 0 -212
-84 -303 -263 -68 -136 -201 -302 -422 -529 -225 -231 -371 -332 -479 -332
-42 0 -53 4 -81 34 -85 91 -95 334 -34 843 18 147 19 175 7 199 -16 34 -43 42
-68 19 -10 -9 -58 -105 -106 -213 -179 -404 -286 -592 -337 -592 -13 0 -29 78
-38 192 -7 87 -7 194 0 339 10 187 9 216 -5 236 -28 43 -55 27 -87 -52 -106
-257 -385 -860 -394 -851 -7 6 56 209 157 511 91 273 98 308 65 335 -33 28
-53 2 -92 -118 l-38 -117 -215 -216 c-271 -272 -424 -395 -600 -484 -146 -74
-240 -84 -338 -35 -93 47 -167 143 -190 248 l-9 39 46 23 c129 62 271 180 348
287 144 202 121 449 -47 494 -38 10 -54 9 -104 -5 -50 -15 -70 -28 -126 -84
-134 -136 -214 -363 -214 -607 0 -195 50 -333 162 -448 53 -54 145 -103 212
-112 67 -9 180 18 284 69 160 78 337 215 564 438 72 71 132 126 132 122 0 -4
-18 -67 -39 -138 -44 -145 -77 -271 -91 -348 -19 -98 22 -169 76 -133 52 33
182 277 359 671 l85 189 0 -95 c2 -306 50 -480 133 -480 80 0 157 97 281 355
126 260 127 261 122 240 -3 -11 -10 -94 -17 -185 -30 -416 35 -657 188 -699
52 -15 61 -14 134 9 151 46 379 244 649 562 l65 76 6 -116 c3 -65 13 -146 23
-181 48 -177 168 -309 315 -347 204 -51 488 110 904 515 65 64 116 109 113
101 -61 -179 -136 -469 -136 -525 0 -118 58 -132 131 -32 39 52 232 439 324
649 l70 158 6 -188 c8 -233 24 -309 77 -364 18 -20 36 -28 61 -28 74 0 186
160 321 460 35 77 65 138 67 136 2 -2 -1 -50 -7 -106 -17 -169 -13 -421 9
-527 77 -372 330 -342 746 88 56 57 143 153 194 214 60 69 92 100 88 85 -23
-98 -107 -548 -107 -579 0 -42 27 -75 53 -66 17 7 15 4 82 195 95 271 220 525
334 677 174 232 312 276 393 126 145 -265 -3 -709 -281 -850 -75 -37 -192 -40
-262 -5 -25 12 -53 22 -62 22 -29 0 -47 -61 -31 -105 9 -23 91 -61 158 -74
206 -38 597 129 991 424 82 62 180 142 294 241 l44 38 -6 -64 c-18 -199 53
-416 170 -521 103 -93 199 -121 323 -95 211 44 465 226 827 594 l182 185 35
-31 c91 -80 228 -64 355 42 24 20 44 36 45 36 2 0 -8 -37 -21 -82 -51 -176
-66 -267 -67 -408 -1 -156 13 -212 69 -278 114 -133 342 -73 644 168 128 102
314 286 439 433 l92 107 0 65 c0 96 -17 89 -141 -57 -319 -377 -655 -632 -850
-646 -78 -5 -120 12 -146 61 -27 49 -24 222 6 357 26 121 84 305 147 468 46
119 54 171 29 192 -27 22 -49 5 -112 -90 -169 -252 -341 -346 -447 -246 l-34
31 14 70 c18 97 18 195 -2 223 -56 80 -132 -62 -121 -227 l6 -86 -227 -225
c-520 -516 -803 -639 -1005 -438 -48 48 -94 134 -104 191 -5 35 -4 36 48 63
314 157 501 460 414 668 -27 63 -101 116 -166 116 -46 0 -121 -34 -168 -76
-54 -48 -126 -158 -157 -238 -45 -115 -497 -482 -810 -656 -60 -33 -112 -60
-117 -60 -4 0 4 19 18 43 39 64 73 143 102 237 23 75 26 103 27 235 0 137 -2
157 -27 232 -49 146 -126 232 -215 241 -148 14 -333 -168 -509 -503 -29 -55
-53 -95 -53 -89 -1 56 41 190 102 324 266 588 520 1344 652 1940 72 322 82
465 36 502 -31 25 -38 23 -82 -22z m-18 -330 c-58 -294 -166 -688 -292 -1064
-86 -257 -246 -680 -248 -654 0 13 107 456 155 638 99 374 217 762 302 985 36
96 104 247 109 242 2 -1 -10 -68 -26 -147z m-6925 -1945 c80 -79 -35 -291
-230 -422 -53 -35 -138 -83 -148 -83 -2 0 0 30 5 68 22 190 124 388 227 442
53 28 116 26 146 -5z m3303 5 c30 -28 36 -61 22 -120 -26 -108 -146 -244 -302
-339 -45 -28 -86 -51 -91 -51 -13 0 0 104 24 191 23 83 84 206 129 260 59 72
171 102 218 59z m4908 -3 c78 -67 -14 -260 -185 -391 -50 -38 -175 -116 -187
-116 -10 0 -2 82 16 160 38 157 127 307 209 350 51 27 113 26 147 -3z"/>
<path d="M6780 10754 c-124 -18 -199 -42 -301 -95 -195 -101 -353 -292 -418
-502 -41 -135 -44 -209 -20 -583 12 -190 19 -347 17 -350 -3 -2 -17 0 -32 6
-14 5 -75 15 -135 22 -97 10 -119 10 -193 -6 -228 -49 -397 -219 -444 -446
-45 -218 58 -458 249 -578 116 -73 165 -86 312 -86 126 0 140 2 272 43 18 5
35 6 37 2 3 -4 6 -35 7 -69 2 -43 -2 -67 -13 -79 -8 -10 -97 -113 -199 -228
-334 -381 -329 -375 -329 -423 0 -108 116 -178 205 -124 17 11 100 98 185 195
85 97 156 174 159 171 6 -6 61 -867 56 -872 -2 -2 -23 9 -47 25 -105 72 -189
107 -319 133 -115 24 -184 25 -299 6 -101 -17 -161 -36 -256 -82 -171 -84
-342 -269 -408 -443 -15 -39 -29 -71 -31 -71 -2 0 -34 23 -71 50 -215 163
-502 221 -752 150 -335 -94 -587 -392 -619 -733 -3 -37 -9 -69 -12 -72 -4 -2
-27 10 -51 27 -71 48 -197 105 -290 129 -118 31 -290 31 -410 1 -287 -74 -524
-297 -608 -572 -47 -155 -47 -166 18 -1206 80 -1285 101 -1495 187 -1914 72
-351 224 -764 314 -852 84 -83 229 -31 229 83 0 19 -25 86 -59 159 -145 311
-241 690 -300 1185 -31 257 -46 462 -105 1415 -57 925 -58 939 -17 1056 41
115 124 222 225 287 336 219 776 44 876 -349 11 -43 20 -91 20 -107 0 -39 34
-94 70 -112 16 -8 48 -15 72 -15 54 0 113 44 127 95 6 23 2 143 -12 373 -20
321 -20 342 -4 408 66 272 292 454 564 454 148 0 282 -52 388 -151 124 -116
169 -221 186 -430 6 -77 17 -145 25 -161 49 -95 203 -88 250 11 15 31 15 54 0
291 -12 181 -14 274 -7 316 45 281 291 493 572 494 124 0 281 -61 381 -150 59
-52 129 -157 157 -236 12 -36 27 -116 35 -198 15 -152 25 -177 87 -208 69 -36
142 -11 178 61 l20 39 -61 989 -62 990 249 281 c137 155 253 282 257 282 4 0
8 -9 8 -19 0 -11 6 -98 14 -193 8 -95 22 -272 31 -393 16 -222 28 -285 77
-397 11 -26 24 -48 28 -48 4 0 15 46 25 102 20 114 20 110 -20 577 -14 167
-25 313 -23 324 2 16 55 -25 261 -208 213 -188 257 -232 257 -254 0 -14 31
-525 69 -1134 l69 -1109 35 -53 c45 -66 128 -231 168 -333 72 -182 124 -410
150 -657 24 -240 1 -752 -57 -1230 -62 -523 -232 -1408 -314 -1642 -38 -108
-17 -178 64 -214 43 -19 51 -18 109 3 55 21 98 145 183 533 128 589 218 1166
269 1740 22 250 30 663 16 820 -37 398 -142 751 -309 1043 l-50 87 -58 947
c-32 521 -56 950 -52 953 4 4 81 -60 173 -142 91 -81 180 -156 198 -165 100
-56 232 31 212 140 -7 44 -71 108 -396 394 l-217 191 -7 64 c-4 36 -4 67 -1
70 3 3 52 -2 110 -11 256 -39 427 1 571 135 113 106 168 223 180 379 12 157
-47 311 -165 430 -168 169 -379 210 -655 126 -27 -9 -53 -12 -57 -8 -4 4 -16
156 -28 337 -24 379 -28 414 -68 529 -100 291 -360 505 -672 555 -62 10 -176
12 -230 5z m272 -307 c173 -63 308 -207 362 -387 25 -81 72 -829 54 -846 -7
-6 -67 -40 -133 -74 -125 -66 -264 -142 -326 -179 l-36 -21 -34 85 c-18 47
-37 85 -41 85 -3 0 -12 -26 -18 -57 -6 -32 -14 -72 -18 -90 l-7 -32 -155 60
c-85 33 -204 78 -265 101 -60 22 -111 41 -112 43 -2 1 -12 145 -23 321 -25
376 -22 516 12 620 65 196 226 345 421 390 91 20 235 12 319 -19z m1145 -1356
c58 -27 124 -90 153 -148 36 -70 35 -178 -2 -249 -52 -100 -145 -154 -262
-154 -68 0 -244 34 -259 49 -16 16 -40 431 -26 447 12 15 113 50 180 63 79 16
171 12 216 -8z m-2219 -156 c57 -13 75 -22 82 -38 12 -31 34 -427 24 -437 -15
-13 -135 -49 -211 -64 -120 -23 -212 5 -290 86 -137 142 -84 385 100 458 62
24 175 22 295 -5z m1547 -126 c4 -55 3 -105 -1 -109 -9 -8 -81 13 -184 55 -57
24 -56 23 -39 40 18 18 191 115 205 115 8 0 14 -36 19 -101z m-966 -68 c41
-12 35 -27 -21 -59 -150 -84 -168 -93 -172 -80 -7 23 -16 204 -11 210 4 3 45
-10 93 -29 48 -19 98 -38 111 -42z"/>
<path d="M16093 6320 c-25 -10 -54 -47 -209 -265 -525 -738 -1426 -1850 -1962
-2421 -304 -324 -572 -556 -671 -581 -53 -13 -100 93 -127 292 -19 133 -21
548 -5 770 32 427 102 927 182 1300 l31 140 143 265 c233 432 224 408 166 464
-37 36 -103 46 -149 22 -92 -47 -182 -237 -268 -564 -31 -117 -45 -150 -121
-285 -1065 -1895 -1970 -3051 -2670 -3412 -150 -78 -229 -99 -368 -99 -115 -1
-123 0 -189 32 -167 79 -285 275 -343 567 -28 143 -25 546 6 718 121 684 466
1195 894 1326 37 11 109 26 160 32 100 13 137 33 137 76 0 34 -43 73 -79 73
-61 0 -188 -22 -266 -47 -312 -99 -579 -350 -765 -723 -175 -352 -262 -725
-261 -1130 0 -624 232 -1022 623 -1068 687 -82 1692 946 2895 2963 65 110 139
235 163 277 24 43 45 76 47 75 1 -2 -4 -41 -12 -88 -25 -142 -64 -434 -84
-639 -72 -714 -42 -1229 82 -1392 139 -182 336 -90 792 366 488 490 1273 1433
1943 2336 96 129 181 242 189 250 13 13 13 13 9 0 -3 -8 -35 -112 -71 -230
-37 -118 -210 -647 -385 -1175 -637 -1923 -840 -2604 -915 -3065 -19 -120 -20
-270 -1 -313 24 -57 61 -82 118 -81 43 0 55 5 75 29 18 20 23 35 18 54 -6 28
-39 61 -61 61 -33 0 -9 221 56 503 110 480 295 1078 825 2677 375 1129 457
1387 516 1618 41 159 47 214 28 255 -18 40 -68 56 -116 37z"/>
<path d="M16431 3034 c-137 -37 -296 -158 -388 -297 -26 -39 -63 -112 -82
-162 -43 -114 -54 -264 -26 -361 55 -190 211 -332 445 -406 107 -33 319 -33
470 1 370 82 838 309 1416 686 110 72 145 100 150 120 10 39 -23 79 -68 83
-29 3 -54 -10 -159 -79 -182 -121 -493 -306 -659 -392 -463 -242 -828 -343
-1059 -293 -103 22 -225 83 -285 144 -46 46 -96 123 -96 147 0 5 58 30 129 54
155 52 321 130 422 199 95 64 192 166 224 234 65 140 1 279 -149 323 -63 19
-214 18 -285 -1z m243 -134 c160 -60 13 -260 -298 -405 -102 -48 -296 -118
-304 -110 -11 10 30 144 65 213 67 135 214 267 331 298 57 15 171 18 206 4z"/>
</g>
</svg>
